<svg width="20" height="20" viewBox="0 0 20 20" fill="none" xmlns="http://www.w3.org/2000/svg">
<path fill-rule="evenodd" clip-rule="evenodd" d="M13.3333 9.99999C13.3333 10.884 12.9821 11.7319 12.357 12.357C11.7319 12.9821 10.8841 13.3333 10 13.3333C9.11595 13.3333 8.2681 12.9821 7.64298 12.357C7.01786 11.7319 6.66667 10.884 6.66667 9.99999C6.66667 9.11593 7.01786 8.26809 7.64298 7.64297C8.2681 7.01785 9.11595 6.66666 10 6.66666C10.8841 6.66666 11.7319 7.01785 12.357 7.64297C12.9821 8.26809 13.3333 9.11593 13.3333 9.99999V9.99999ZM12.0833 9.99999C12.0833 10.5525 11.8638 11.0824 11.4731 11.4731C11.0824 11.8638 10.5525 12.0833 10 12.0833C9.44747 12.0833 8.91757 11.8638 8.52687 11.4731C8.13617 11.0824 7.91667 10.5525 7.91667 9.99999C7.91667 9.44746 8.13617 8.91755 8.52687 8.52685C8.91757 8.13615 9.44747 7.91666 10 7.91666C10.5525 7.91666 11.0824 8.13615 11.4731 8.52685C11.8638 8.91755 12.0833 9.44746 12.0833 9.99999Z" fill="white"/>
<path fill-rule="evenodd" clip-rule="evenodd" d="M10 0.833346C9.77667 0.833346 9.555 0.841679 9.33584 0.856679C8.7 0.902512 8.215 1.37085 8.07584 1.94335L7.7825 3.15168C7.76584 3.21668 7.7075 3.29501 7.595 3.33501C7.38896 3.40969 7.18652 3.49395 6.98834 3.58751C6.88 3.63751 6.78334 3.62418 6.72584 3.58918L5.66417 2.94251C5.16084 2.63585 4.4875 2.64751 4.00584 3.06501C3.67 3.35501 3.35584 3.67001 3.065 4.00501C2.64834 4.48751 2.63584 5.16085 2.9425 5.66335L3.58917 6.72585C3.62417 6.78335 3.63834 6.88001 3.5875 6.98835C3.49417 7.18585 3.41 7.38835 3.33584 7.59501C3.29417 7.70751 3.21667 7.76668 3.15167 7.78251L1.94334 8.07585C1.37084 8.21501 0.902504 8.70001 0.856671 9.33585C0.824978 9.77806 0.824978 10.222 0.856671 10.6642C0.902504 11.3 1.37084 11.785 1.94334 11.9242L3.15167 12.2175C3.21667 12.2342 3.295 12.2925 3.335 12.405C3.41 12.6117 3.49417 12.8142 3.5875 13.0125C3.6375 13.12 3.62417 13.2167 3.58917 13.2742L2.9425 14.3358C2.63584 14.8392 2.6475 15.5125 3.065 15.9942C3.355 16.33 3.67 16.6442 4.005 16.935C4.4875 17.3517 5.16084 17.3642 5.66334 17.0575L6.72584 16.4108C6.78334 16.3758 6.88 16.3617 6.98834 16.4125C7.18584 16.5058 7.38834 16.59 7.595 16.6642C7.7075 16.7058 7.76667 16.7833 7.7825 16.8483L8.07584 18.0567C8.215 18.6292 8.7 19.0975 9.33584 19.1425C9.77805 19.1743 10.222 19.1743 10.6642 19.1425C11.3 19.0975 11.785 18.6292 11.9242 18.0567L12.2175 16.8483C12.2342 16.7833 12.2925 16.705 12.405 16.665C12.6117 16.59 12.8142 16.5058 13.0125 16.4125C13.12 16.3625 13.2167 16.3758 13.2742 16.4108L14.3358 17.0575C14.8392 17.3642 15.5125 17.3525 15.9942 16.935C16.33 16.645 16.6442 16.33 16.935 15.995C17.3517 15.5125 17.3642 14.8392 17.0575 14.3367L16.4108 13.2742C16.3758 13.2167 16.3617 13.12 16.4125 13.0117C16.5058 12.8142 16.59 12.6117 16.6642 12.405C16.7058 12.2925 16.7833 12.2333 16.8483 12.2175L18.0567 11.9242C18.6292 11.785 19.0975 11.3 19.1425 10.6642C19.1743 10.222 19.1743 9.77805 19.1425 9.33585C19.0975 8.70001 18.6292 8.21501 18.0567 8.07585L16.8483 7.78251C16.7833 7.76585 16.705 7.70751 16.665 7.59501C16.5903 7.38898 16.506 7.18654 16.4125 6.98835C16.3625 6.88001 16.3758 6.78335 16.4108 6.72585L17.0575 5.66418C17.3642 5.16085 17.3525 4.48751 16.935 4.00585C16.645 3.67001 16.33 3.35585 15.995 3.06501C15.5125 2.64835 14.8392 2.63585 14.3367 2.94251L13.2742 3.58918C13.2167 3.62418 13.12 3.63835 13.0117 3.58751C12.8135 3.49425 12.611 3.41027 12.405 3.33585C12.2925 3.29418 12.2333 3.21668 12.2175 3.15168L11.9242 1.94335C11.785 1.37085 11.3 0.902512 10.6642 0.856679C10.4431 0.840983 10.2216 0.8332 10 0.833346V0.833346ZM9.425 2.10418C9.80785 2.07673 10.1922 2.07673 10.575 2.10418C10.6208 2.10751 10.6875 2.14585 10.71 2.23751L11.0025 3.44585C11.13 3.96918 11.5242 4.34585 11.98 4.51085C12.1508 4.57251 12.3175 4.64168 12.48 4.71835C12.7071 4.82817 12.9578 4.88002 13.2098 4.86926C13.4619 4.8585 13.7073 4.78546 13.9242 4.65668L14.9867 4.01001C15.0675 3.96001 15.1417 3.98001 15.1767 4.01001C15.4667 4.26168 15.7383 4.53335 15.99 4.82335C16.02 4.85835 16.04 4.93168 15.99 5.01335L15.3433 6.07501C15.2144 6.292 15.1413 6.53757 15.1305 6.78975C15.1198 7.04192 15.1717 7.29283 15.2817 7.52001C15.3583 7.68251 15.4275 7.84918 15.4883 8.02001C15.6533 8.47585 16.0317 8.87001 16.5533 8.99668L17.7617 9.29085C17.8542 9.31251 17.8925 9.37918 17.8958 9.42501C17.9233 9.80786 17.9233 10.1922 17.8958 10.575C17.8925 10.6208 17.8542 10.6875 17.7625 10.71L16.5542 11.0025C16.3097 11.0648 16.0846 11.1867 15.8987 11.3573C15.7129 11.5279 15.5722 11.7418 15.4892 11.98C15.4276 12.1498 15.3581 12.3167 15.2808 12.48C15.1711 12.7072 15.1194 12.9579 15.1303 13.21C15.1412 13.462 15.2144 13.7074 15.3433 13.9242L15.99 14.9867C16.04 15.0675 16.02 15.1417 15.99 15.1767C15.7389 15.467 15.467 15.7389 15.1767 15.99C15.1417 16.02 15.0683 16.04 14.9867 15.99L13.9242 15.3433C13.7073 15.2146 13.4619 15.1415 13.2098 15.1308C12.9578 15.12 12.7071 15.1719 12.48 15.2817C12.3167 15.3583 12.1498 15.4273 11.98 15.4883C11.742 15.5715 11.5282 15.7122 11.3578 15.8981C11.1874 16.0839 11.0656 16.309 11.0033 16.5533L10.7092 17.7617C10.6875 17.8542 10.6208 17.8925 10.575 17.8958C10.1922 17.9233 9.80785 17.9233 9.425 17.8958C9.37917 17.8925 9.3125 17.8542 9.29 17.7625L8.9975 16.5542C8.93517 16.3098 8.81328 16.0846 8.64271 15.8987C8.47214 15.7129 8.25821 15.5722 8.02 15.4892C7.85017 15.4276 7.68332 15.3581 7.52 15.2808C7.29275 15.171 7.04181 15.1192 6.78963 15.1301C6.53746 15.141 6.29192 15.2143 6.075 15.3433L5.01334 15.99C4.9325 16.04 4.85834 16.02 4.82334 15.99C4.53298 15.7389 4.26116 15.467 4.01 15.1767C3.98 15.1417 3.96 15.0683 4.01 14.9867L4.65667 13.9242C4.78546 13.7073 4.85849 13.4619 4.86925 13.2099C4.88001 12.9578 4.82816 12.7071 4.71834 12.48C4.64141 12.3167 4.57217 12.1498 4.51084 11.98C4.42779 11.7421 4.28717 11.5284 4.10149 11.3579C3.91581 11.1875 3.69085 11.0657 3.44667 11.0033L2.23834 10.7092C2.14584 10.6875 2.1075 10.6208 2.10417 10.575C2.07672 10.1922 2.07672 9.80786 2.10417 9.42501C2.1075 9.37918 2.14584 9.31251 2.2375 9.29001L3.44584 8.99751C3.69027 8.93518 3.91545 8.81329 4.10129 8.64272C4.28713 8.47215 4.42783 8.25821 4.51084 8.02001C4.57217 7.8502 4.64142 7.68335 4.71834 7.52001C4.82831 7.29283 4.88024 7.04192 4.86948 6.78975C4.85872 6.53757 4.7856 6.292 4.65667 6.07501L4.01 5.01335C3.96 4.93251 3.98 4.85835 4.01 4.82335C4.26167 4.53335 4.53334 4.26168 4.82334 4.01001C4.85834 3.98001 4.93167 3.96001 5.01334 4.01001L6.075 4.65668C6.29199 4.78561 6.53756 4.85872 6.78974 4.86949C7.04191 4.88025 7.29282 4.82832 7.52 4.71835C7.68335 4.64142 7.85019 4.57218 8.02 4.51085C8.25795 4.4278 8.47166 4.28717 8.64207 4.1015C8.81248 3.91582 8.9343 3.69086 8.99667 3.44668L9.29084 2.23835C9.3125 2.14585 9.37917 2.10751 9.425 2.10418V2.10418Z" fill="white"/>
</svg>
